<?xml version="1.0"?>
<svg xmlns="http://www.w3.org/2000/svg" viewBox="0 0 16 16">
    <path d="M 6.2910156 2 C 5.7850156 2 5.3285625 2.3143125 5.1015625 2.8203125 L 5.0214844 3 L 2.5 3 C 1.673 3 1 3.673 1 4.5 L 1 11.5 C 1 12.327 1.673 13 2.5 13 L 6.2128906 13 C 6.1218906 12.677 6.0563906 12.344 6.0253906 12 L 2.5 12 C 2.224 12 2 11.775 2 11.5 L 2 4.5 C 2 4.225 2.224 4 2.5 4 L 5.6679688 4 L 6.0136719 3.2304688 C 6.0766719 3.0904687 6.1860156 3 6.2910156 3 L 9.7089844 3 C 9.8139844 3 9.9233281 3.0914688 9.9863281 3.2304688 L 10.332031 4 L 13.5 4 C 13.776 4 14 4.225 14 4.5 L 14 6.6054688 C 14.357 6.7884687 14.694 7.0048125 15 7.2578125 L 15 4.5 C 15 3.673 14.327 3 13.5 3 L 10.978516 3 L 10.898438 2.8183594 C 10.670438 2.3133594 10.213984 2 9.7089844 2 L 6.2910156 2 z M 3 5 L 3 6 L 4 6 L 4 5 L 3 5 z M 8 5 C 6.346 5 5 6.346 5 8 C 5 8.943 5.4459062 9.7761719 6.1289062 10.326172 C 6.2079063 9.9611719 6.3236562 9.6093906 6.4726562 9.2753906 C 6.1816563 8.9273906 6 8.487 6 8 C 6 6.897 6.897 6 8 6 C 8.487 6 8.9273906 6.1816562 9.2753906 6.4726562 C 9.6093906 6.3246563 9.9611719 6.2089062 10.326172 6.1289062 C 9.7761719 5.4459063 8.943 5 8 5 z M 11.5 7 C 9.0206409 7 7 9.0206409 7 11.5 C 7 13.979359 9.0206409 16 11.5 16 C 13.979359 16 16 13.979359 16 11.5 C 16 9.0206409 13.979359 7 11.5 7 z M 11.5 8 C 13.438919 8 15 9.5610811 15 11.5 C 15 13.438919 13.438919 15 11.5 15 C 9.5610811 15 8 13.438919 8 11.5 C 8 9.5610811 9.5610811 8 11.5 8 z M 11 9 L 11 11 L 9 11 L 9 12 L 11 12 L 11 14 L 12 14 L 12 12 L 14 12 L 14 11 L 12 11 L 12 9 L 11 9 z"/>
</svg>
